<svg height='100px' width='100px'  fill="#ffffff" xmlns="http://www.w3.org/2000/svg" xmlns:xlink="http://www.w3.org/1999/xlink" version="1.1" x="0px" y="0px" viewBox="0 0 100 100" style="enable-background:new 0 0 100 100;" xml:space="preserve"><g><path d="M50,5C25.2,5,5,25.2,5,50c0,24.8,20.2,45,45,45c24.8,0,45-20.2,45-45C95,25.2,74.8,5,50,5z M50,91C27.4,91,9,72.6,9,50   S27.4,9,50,9s41,18.4,41,41S72.6,91,50,91z"></path><path d="M58.4,26.6c-0.8-0.8-2-0.8-2.8,0l-22,22c-0.8,0.8-0.8,2,0,2.8l22,22C56,73.8,56.5,74,57,74s1-0.2,1.4-0.6   c0.8-0.8,0.8-2,0-2.8L37.8,50l20.6-20.6C59.2,28.6,59.2,27.4,58.4,26.6z"></path></g></svg>