<svg height='100px' width='100px'  fill="#264653" xmlns="http://www.w3.org/2000/svg" xmlns:xlink="http://www.w3.org/1999/xlink" version="1.1" x="0px" y="0px" viewBox="0 0 66 66" enable-background="new 0 0 66 66" xml:space="preserve"><g><path d="M42,61c0.6-0.6,0.6-1.5,0-2.1l-7.3-7.3c1.7-0.7,2.9-2.4,2.9-4.3c0-2.6-2.1-4.7-4.7-4.7s-4.7,2.1-4.7,4.7   c0,2,1.2,3.6,2.9,4.3L24,58.9c-0.6,0.6-0.6,1.5,0,2.1s1.5,0.6,2.1,0l3.6-3.6V65l6.6,0l0-7.6l3.6,3.6C40.5,61.6,41.4,61.6,42,61z"></path><path d="M42,5c-0.6-0.6-1.5-0.6-2.1,0l-3.6,3.6V1h-6.6v7.6L26.1,5c-0.6-0.6-1.5-0.6-2.1,0s-0.6,1.5,0,2.1l7.3,7.3   c-1.7,0.7-2.9,2.4-2.9,4.3c0,2.6,2.1,4.7,4.7,4.7s4.7-2.1,4.7-4.7c0-2-1.2-3.6-2.9-4.3L42,7.1C42.6,6.5,42.6,5.6,42,5z"></path><path d="M12.7,58l5.4-5.4v5.1c0,0.8,0.7,1.5,1.5,1.5s1.5-0.7,1.5-1.5V47.4c1.7,0.7,3.7,0.4,5.1-1c1.8-1.8,1.8-4.8,0-6.6   s-4.8-1.8-6.6,0c-1.4,1.4-1.7,3.4-1,5.1H8.3c-0.8,0-1.5,0.7-1.5,1.5s0.7,1.5,1.5,1.5h5.1L8,53.3L12.7,58z"></path><path d="M53.3,8l-5.4,5.4V8.3c0-0.8-0.7-1.5-1.5-1.5s-1.5,0.7-1.5,1.5v10.3c-1.7-0.7-3.7-0.4-5.1,1c-1.8,1.8-1.8,4.8,0,6.6   s4.8,1.8,6.6,0c1.4-1.4,1.7-3.4,1-5.1h10.3c0.8,0,1.5-0.7,1.5-1.5s-0.7-1.5-1.5-1.5h-5.1l5.4-5.4L53.3,8z"></path><path d="M8.6,36.3L5,39.9c-0.6,0.6-0.6,1.5,0,2.1c0.6,0.6,1.5,0.6,2.1,0l7.3-7.3c0.7,1.7,2.4,2.9,4.3,2.9c2.6,0,4.7-2.1,4.7-4.7   s-2.1-4.7-4.7-4.7c-2,0-3.6,1.2-4.3,2.9L7.1,24c-0.6-0.6-1.5-0.6-2.1,0s-0.6,1.5,0,2.1l3.6,3.6H1l0,6.6H8.6z"></path><path d="M19.6,26.2c1.8,1.8,4.8,1.8,6.6,0s1.8-4.8,0-6.6c-1.4-1.4-3.4-1.7-5.1-1V8.3c0-0.8-0.7-1.5-1.5-1.5s-1.5,0.7-1.5,1.5v5.1   L12.7,8L8,12.7l5.4,5.4H8.3c-0.8,0-1.5,0.7-1.5,1.5s0.7,1.5,1.5,1.5h10.3C17.9,22.8,18.2,24.8,19.6,26.2z"></path><path d="M59.2,46.4c0-0.8-0.7-1.5-1.5-1.5H47.4c0.7-1.7,0.4-3.7-1-5.1c-1.8-1.8-4.8-1.8-6.6,0s-1.8,4.8,0,6.6   c1.4,1.4,3.4,1.7,5.1,1v10.3c0,0.8,0.7,1.5,1.5,1.5s1.5-0.7,1.5-1.5v-5.1l5.4,5.4l4.7-4.7l-5.4-5.4h5.1   C58.5,47.9,59.2,47.3,59.2,46.4z"></path><path d="M65,29.7h-7.6l3.6-3.6c0.6-0.6,0.6-1.5,0-2.1s-1.5-0.6-2.1,0l-7.3,7.3c-0.7-1.7-2.4-2.9-4.3-2.9c-2.6,0-4.7,2.1-4.7,4.7   s2.1,4.7,4.7,4.7c2,0,3.6-1.2,4.3-2.9l7.3,7.3c0.6,0.6,1.5,0.6,2.1,0c0.6-0.6,0.6-1.5,0-2.1l-3.6-3.6H65V29.7z"></path></g></svg>