<svg height='100px' width='100px'  fill="#264653" xmlns="http://www.w3.org/2000/svg" viewBox="0 0 64 64" x="0px" y="0px"><title>line style 1</title><g data-name="line style 1"><path d="M60,24H57V3a1,1,0,0,0-1-1H42a1,1,0,0,0-1,1V24H38a1,1,0,0,0-1,1v9H34V19a1,1,0,0,0-1-1H21a1,1,0,0,0-1,1V34H17V27a1,1,0,0,0-1-1H6a1,1,0,0,0-1,1V42H3a1,1,0,0,0-1,1V61a1,1,0,0,0,1,1H60a1,1,0,0,0,1-1V25A1,1,0,0,0,60,24ZM43,12h2a1,1,0,0,0,0-2H43V8h2a1,1,0,0,0,0-2H43V4H55V24H43ZM22,28h2a1,1,0,0,0,0-2H22V24h2a1,1,0,0,0,0-2H22V20H32V34H22ZM7,36H9a1,1,0,0,0,0-2H7V32H9a1,1,0,0,0,0-2H7V28h8v6H14a1,1,0,0,0-1,1v7H7ZM4,44h9V60H4Zm11-1V36H37V60H30V51a1,1,0,0,0-1-1H23a1,1,0,0,0-1,1v9H15Zm9,17V52h4v8Zm35,0H39V26H59Z"></path><path d="M19.13,10a4,4,0,0,0,4,3A3,3,0,0,0,29,12c0-.11,0-.23,0-.35A4,4,0,0,0,30,9a4,4,0,0,0-4.17-4A3,3,0,0,0,23,3a3.17,3.17,0,0,0-1.14.22A4,4,0,1,0,19.13,10ZM19,4a2,2,0,0,1,1.74,1,1,1,0,0,0,.73.51,1,1,0,0,0,.84-.27A1,1,0,0,1,24,6s0,.09,0,.11a1,1,0,0,0,.38.88,1,1,0,0,0,.95.15A1.9,1.9,0,0,1,26,7a2,2,0,0,1,2,2,2,2,0,0,1-.75,1.55,1,1,0,0,0-.32,1.11A.94.94,0,0,1,27,12a1,1,0,0,1-2,0s0-.09,0-.11a1,1,0,0,0-1.33-1A1.9,1.9,0,0,1,23,11a2,2,0,0,1-2-2s0-.13,0-.16a1,1,0,0,0-1.34-1A1.9,1.9,0,0,1,19,8a2,2,0,0,1,0-4Z"></path><path d="M9,46H8a1,1,0,0,0,0,2H9a1,1,0,0,0,0-2Z"></path><path d="M9,50H8a1,1,0,0,0,0,2H9a1,1,0,0,0,0-2Z"></path><path d="M19,38H18a1,1,0,0,0,0,2h1a1,1,0,0,0,0-2Z"></path><path d="M19,42H18a1,1,0,0,0,0,2h1a1,1,0,0,0,0-2Z"></path><path d="M23,40h1a1,1,0,0,0,0-2H23a1,1,0,0,0,0,2Z"></path><path d="M23,44h1a1,1,0,0,0,0-2H23a1,1,0,0,0,0,2Z"></path><path d="M28,40h1a1,1,0,0,0,0-2H28a1,1,0,0,0,0,2Z"></path><path d="M28,44h1a1,1,0,0,0,0-2H28a1,1,0,0,0,0,2Z"></path><path d="M33,40h1a1,1,0,0,0,0-2H33a1,1,0,0,0,0,2Z"></path><path d="M33,44h1a1,1,0,0,0,0-2H33a1,1,0,0,0,0,2Z"></path><path d="M42,28a1,1,0,0,0-1,1v4a1,1,0,0,0,1,1H56a1,1,0,0,0,1-1V29a1,1,0,0,0-1-1Zm13,4H43V30H55Z"></path><path d="M56,36H42a1,1,0,0,0-1,1v4a1,1,0,0,0,1,1H56a1,1,0,0,0,1-1V37A1,1,0,0,0,56,36Zm-1,4H43V38H55Z"></path></g></svg>