<svg height='100px' width='100px'  fill="#264653" xmlns="http://www.w3.org/2000/svg" data-name="Layer 2" viewBox="0 0 100 100" x="0px" y="0px"><title>map</title><path d="M51.18,58.56a1,1,0,0,0-1.8.88,16.32,16.32,0,0,0,3.85,5,1,1,0,0,0,1.42-.08A1,1,0,0,0,54.56,63,14.44,14.44,0,0,1,51.18,58.56Z"></path><path d="M76.53,69h-.77c-1.75,0-3.47-.08-5.12-.23a1,1,0,0,0-.18,2c1.7.16,3.49.24,5.3.24h.8a1,1,0,0,0,1-1A1,1,0,0,0,76.53,69Z"></path><path d="M42.87,49.44a1,1,0,0,0-1.36.38,1,1,0,0,0,.38,1.36,18.4,18.4,0,0,1,4.48,3.46,1,1,0,0,0,.73.32,1,1,0,0,0,.68-.26,1,1,0,0,0,0-1.42A20.17,20.17,0,0,0,42.87,49.44Z"></path><path d="M88.5,37.58V25a1,1,0,0,0-.37-.77A1,1,0,0,0,87.3,24L62.49,29.09,37.7,24h-.4l-4.48.92a13.61,13.61,0,0,0-2.1-6.62A13.82,13.82,0,0,0,5.21,25.68c0,3.05,2.05,7.36,6.13,12.87a1.77,1.77,0,0,1,.16.22V81.25a1,1,0,0,0,1,1l.2,0,24.81-5.07L62.3,82.23l.2,0,.2,0,25-5.11a1,1,0,0,0,.8-1V62.77c.81-1.08,1.63-2.21,2.4-3.37,2.53-3.82,3.93-7,4.15-9.5,0-.2,0-.39,0-.58A13.7,13.7,0,0,0,92.94,42,13.85,13.85,0,0,0,88.5,37.58ZM7.55,25.68a11.48,11.48,0,0,1,21.19-6.11h0a11.33,11.33,0,0,1,1.77,6.11c0,.14,0,.28,0,.42-.17,2-1.48,4.93-3.76,8.37a84.05,84.05,0,0,1-6.33,8.2L19,44.2c-.37-.4-.83-.91-1.36-1.52-1.6-1.86-3-3.54-4.17-5.15l-.09-.11-.23-.31C9.49,32.13,7.55,28.18,7.55,25.68Zm6,15.65q1.11,1.38,2.4,2.88c1.34,1.53,2.25,2.48,2.29,2.52a1.14,1.14,0,0,0,.44.28h0a.85.85,0,0,0,.38.09h.09a50.76,50.76,0,0,1,5.87,0,1,1,0,0,0,1-1,1,1,0,0,0-1-1c-1.41-.06-2.63-.07-3.62,0l.7-.79a87.49,87.49,0,0,0,6.52-8.45c2.29-3.45,3.64-6.38,4-8.76l3.78-.77v20.6a44.94,44.94,0,0,0-5.33-1.18,1,1,0,0,0-.32,2,42.32,42.32,0,0,1,5.65,1.28V75.32L13.5,80ZM61.5,80l-23-4.7V26.23l23,4.7v36c-.75-.27-1.47-.55-2.15-.86a1,1,0,0,0-.83,1.82,27.54,27.54,0,0,0,3,1.15Zm25-4.7L63.5,80V69.58l.9.23a.85.85,0,0,0,.23,0,1,1,0,0,0,.22-2c-.46-.1-.91-.22-1.35-.34V30.93l23-4.7V36.55c-.23-.1-.46-.17-.69-.25L85,36l-.68-.17c-.31-.07-.63-.13-1-.18l-.57-.08a13.64,13.64,0,0,0-1.57-.1h0A13.83,13.83,0,0,0,67.43,49.32c0,3,2,7.36,6.13,12.87l.19.25.1.14c1.24,1.65,2.63,3.37,4.27,5.27,1.34,1.53,2.25,2.48,2.29,2.52a1.05,1.05,0,0,0,.44.27,1.11,1.11,0,0,0,.4.09h0a1,1,0,0,0,.4-.09,1.22,1.22,0,0,0,.44-.28s.91-1,2.28-2.51c.62-.72,1.35-1.58,2.12-2.53Zm6.21-25.58c-.17,2-1.48,4.92-3.76,8.37a85.29,85.29,0,0,1-6.33,8.2l-1.37,1.53c-.37-.4-.83-.92-1.36-1.52-1.6-1.86-3-3.54-4.17-5.15l-.09-.11-.23-.31c-3.69-5-5.63-8.93-5.63-11.43A11.48,11.48,0,0,1,91,43.21h0a11.33,11.33,0,0,1,1.77,6.11C92.73,49.46,92.72,49.6,92.71,49.74Z"></path><path d="M81.25,41.52a7.81,7.81,0,0,0-7.8,7.8,7.71,7.71,0,0,0,1.73,4.89,7.4,7.4,0,0,0,2.42,2,7.58,7.58,0,0,0,3.65.92,7.75,7.75,0,0,0,4.25-1.27c.2-.13.39-.27.58-.41a7.74,7.74,0,0,0,2.62-3.9s0-.06,0-.09a6.11,6.11,0,0,0,.17-.74c0-.1,0-.19.06-.29a7.91,7.91,0,0,0,.08-1.1,7.79,7.79,0,0,0-7.79-7.8Zm5.23,9.29a5.35,5.35,0,0,1-2.26,3.08,5.41,5.41,0,0,1-5.53.24A5.17,5.17,0,0,1,77,52.75a5.46,5.46,0,1,1,9.7-3.43A4.93,4.93,0,0,1,86.48,50.81Z"></path><path d="M15.38,32.56a7.58,7.58,0,0,0,3.65.92,7.75,7.75,0,0,0,4.25-1.27c.2-.13.39-.27.58-.41a7.74,7.74,0,0,0,2.63-3.91.31.31,0,0,0,0-.08,6.41,6.41,0,0,0,.17-.73c0-.1.05-.2.06-.3a7.78,7.78,0,0,0-1-5.05,7.8,7.8,0,0,0-14.52,3.95A7.71,7.71,0,0,0,13,30.57,7.27,7.27,0,0,0,15.38,32.56ZM19,20.22a5.46,5.46,0,0,1,5.45,5.46,4.89,4.89,0,0,1-.22,1.49A5.35,5.35,0,0,1,22,30.25a5.41,5.41,0,0,1-5.53.24,5.17,5.17,0,0,1-1.69-1.38A5.46,5.46,0,0,1,19,20.22Z"></path></svg>