<svg height='100px' width='100px'  fill="#264653" xmlns="http://www.w3.org/2000/svg" xmlns:xlink="http://www.w3.org/1999/xlink" xml:space="preserve" version="1.1" style="shape-rendering:geometricPrecision;text-rendering:geometricPrecision;image-rendering:optimizeQuality;" viewBox="0 0 422 386" x="0px" y="0px" fill-rule="evenodd" clip-rule="evenodd"><defs><style type="text/css">
   
    .fil1 {fill:#264653}
    .fil0 {fill:#264653;fill-rule:nonzero}
   
  </style></defs><g><path class="fil0" d="M229 0c107,0 193,86 193,193 0,106 -86,193 -193,193 -36,0 -72,-11 -103,-30l-121 21c-3,1 -6,-3 -5,-6l48 -112c-8,-21 -12,-44 -12,-66 0,-107 87,-193 193,-193zm0 22c-94,0 -170,76 -170,171 0,21 3,42 11,62l2 5 -39 90 98 -18 4 3c28,19 61,29 94,29 95,0 171,-77 171,-171 0,-95 -76,-171 -171,-171z"></path><path class="fil0" d="M170 139c7,-27 31,-46 59,-46 34,0 61,28 61,61 0,27 -17,50 -42,58 -5,2 -8,6 -8,10l0 13c0,2 -2,4 -4,4l-14 0c-2,0 -4,-2 -4,-4l0 -13c0,-14 9,-26 23,-31 16,-5 27,-20 27,-37 0,-21 -17,-39 -39,-39 -17,0 -32,12 -37,28 -1,3 -3,4 -5,3l-13 -2c-3,0 -4,-3 -4,-5z"></path><circle class="fil1" cx="229" cy="273" r="17"></circle></g></svg>